HIERARCHY
ROOT Hips
{
	OFFSET 0.000000 0.000000 0.000000 
	CHANNELS 6 Xposition Yposition Zposition Yrotation Zrotation Xrotation 
	JOINT Lumbar
	{
		OFFSET 0.000000 0.000000 0.000000 
		CHANNELS 3 Zrotation Xrotation Yrotation
		JOINT Neck
		{
			OFFSET 0.000000 0.445665 0.000000 
			CHANNELS 3 Zrotation Xrotation Yrotation
			End Site
			{
				OFFSET 0.000000 0.227535 0.000000 
			}
		}
		JOINT RightShoulder
		{
			OFFSET 0.019635 0.377685 0.194865 
			CHANNELS 3 Zrotation Xrotation Yrotation
			JOINT RightElbow
			{
				OFFSET 0.000000 -0.243375 0.000000 
				CHANNELS 2 Zrotation Yrotation
				JOINT RightWrist
				{
					OFFSET 0.000000 -0.264825 0.000000 
					CHANNELS 2 Zrotation Xrotation
					End Site
					{
						OFFSET 0.006600 -0.176220 0.000990 
					}
				}
			}
		}
		JOINT LeftShoulder
		{
			OFFSET 0.019635 0.377685 -0.194865 
			CHANNELS 3 Zrotation Xrotation Yrotation
			JOINT LeftElbow
			{
				OFFSET 0.000000 -0.243375 0.000000 
				CHANNELS 2 Zrotation Yrotation
				JOINT LeftWrist
				{
					OFFSET 0.000000 -0.264825 0.000000 
					CHANNELS 2 Zrotation Xrotation
					End Site
					{
						OFFSET 0.006600 -0.176220 -0.000990 
					}
				}
			}
		}
	}
	JOINT RightHip
	{
		OFFSET 0.052140 -0.069960 0.075570 
		CHANNELS 3 Zrotation Xrotation Yrotation
		JOINT RightKnee
		{
			OFFSET 0.000000 -0.402270 0.000000 
			CHANNELS 1 Zrotation
			JOINT RightAnkle
			{
				OFFSET 0.000000 -0.404085 0.000000 
				CHANNELS 3 Zrotation Xrotation Yrotation
				End Site
				{
					OFFSET 0.204105 -0.089430 0.008415 
				}
			}
		}
	}
	JOINT LeftHip
	{
		OFFSET 0.052140 -0.069960 -0.075570 
		CHANNELS 3 Zrotation Xrotation Yrotation
		JOINT LeftKnee
		{
			OFFSET 0.000000 -0.402270 0.000000 
			CHANNELS 1 Zrotation
			JOINT LeftAnkle
			{
				OFFSET 0.000000 -0.404085 0.000000 
				CHANNELS 3 Zrotation Xrotation Yrotation
				End Site
				{
					OFFSET 0.204105 -0.089430 -0.008415 
				}
			}
		}
	}
}
MOTION
Frames: 34
Frame Time: 0.02
0.21065 0.90262 -0.65768 1261.68178 0 -3.59152 -8.78406 18.70263 2.18514 -32.48415 1.84226 3.74424 33.11346 -21.4242 -15.41569 12.15187 81.47436 -4.48486 -5.59241 11.97087 29.17446 -38.96245 71.32006 -82.06808 -25.15852 3.80843 -11.52936 6.75107 2.3315 -17.05464 10.43277 -4.8134 -3.36334 21.12178 0.09907 -0.36883 -14.36422 -0.10749 1.83326 -1.63864
0.19085 0.90297 -0.65349 1261.77925 0 -3.55106 -8.71112 18.44872 2.12954 -32.79488 1.93074 3.77243 32.9434 -21.51009 -15.78199 12.09696 81.45462 -4.51784 -5.55252 12.3363 28.78671 -39.13391 70.38211 -82.08878 -25.20558 3.82514 -10.91801 6.2568 1.71909 -19.94433 9.69274 -4.06222 -2.12608 21.11022 -0.20486 -0.41401 -16.28182 0.03991 1.76777 -1.69974
0.17073 0.90439 -0.64881 1261.93809 0 -3.46256 -8.59169 18.20667 2.04598 -33.13968 1.97872 3.74514 32.76445 -21.55334 -16.2173 12.03045 81.42875 -4.56488 -5.53215 12.7761 28.3793 -39.27692 69.32504 -82.0568 -25.35734 3.83639 -9.98159 5.63665 0.94139 -23.31657 8.46891 -3.09918 -0.61803 20.99486 -0.54246 -0.44222 -18.26874 0.48701 1.62111 -1.87066
0.15081 0.90533 -0.64439 1262.06451 0 -3.39759 -8.49257 17.9578 1.9721 -33.46263 2.04798 3.74306 32.59385 -21.61467 -16.60123 11.97298 81.40689 -4.60315 -5.50463 13.16831 27.9945 -39.41868 68.35766 -82.05105 -25.46167 3.84896 -9.15823 5.08855 0.27831 -26.49614 7.40386 -2.26927 0.73381 20.90243 -0.85651 -0.46328 -20.18082 0.80323 1.50937 -2.00066
0.13064 0.90625 -0.63978 1262.2077 0 -3.32355 -8.39656 17.71073 1.91197 -33.81272 2.10636 3.74318 32.40268 -21.6834 -17.07229 11.8995 81.37997 -4.65123 -5.46946 13.61697 27.55011 -39.61918 67.23999 -82.03893 -25.56477 3.86672 -8.47337 4.47436 -0.54672 -29.58708 6.57921 -1.28421 2.23446 20.91827 -1.20584 -0.54326 -22.32124 1.08713 1.40621 -2.09737
0.11093 0.90745 -0.63547 1262.33265 0 -3.25854 -8.28277 17.46577 1.81558 -34.11408 2.17676 3.72361 32.25326 -21.72472 -17.37804 11.8564 81.36198 -4.68231 -5.45454 13.9675 27.22673 -39.69198 66.40682 -82.02494 -25.69509 3.87222 -7.42782 3.97019 -1.07948 -32.95833 5.16119 -0.57037 3.48055 20.68153 -1.48908 -0.501 -23.9848 1.51166 1.26647 -2.28592
0.09257 0.90912 -0.63212 1262.37645 0 -3.21998 -8.13646 17.20638 1.63382 -34.27443 2.29688 3.67697 32.21989 -21.715 -17.2009 11.9031 81.3714 -4.663 -5.49689 14.01496 27.23176 -39.40695 66.39325 -82.03585 -25.88033 3.84586 -5.44189 3.78877 -0.71477 -37.10162 2.02994 -0.67594 4.02654 19.77417 -1.58675 -0.08709 -24.3171 2.27205 1.03719 -2.72331
0.0747 0.91104 -0.62911 1262.40238 0 -3.19409 -7.9733 16.95234 1.41528 -34.38393 2.42903 3.60988 32.22929 -21.67653 -16.85646 11.98019 81.38976 -4.62612 -5.55805 13.96353 27.36128 -38.99653 66.66966 -82.04353 -26.08859 3.80726 -3.10982 3.72475 -0.05889 -41.48367 -1.6463 -1.05875 4.2947 18.61503 -1.61575 0.44243 -24.15992 3.16147 0.77534 -3.24478
0.05663 0.91286 -0.62597 1262.44753 0 -3.16935 -7.81415 16.70759 1.20803 -34.51578 2.55143 3.54286 32.22055 -21.64166 -16.59418 12.0415 81.40323 -4.59732 -5.60661 13.9669 27.44093 -38.65171 66.80971 -82.04081 -26.28278 3.77375 -0.9523 3.61539 0.43 -45.68256 -4.94576 -1.30223 4.64313 17.56949 -1.67283 0.89344 -24.21919 3.97979 0.53369 -3.71296
0.03842 0.91465 -0.62268 1262.44983 0 -3.11417 -7.66751 16.41364 1.02167 -34.65312 2.69112 3.51233 32.20657 -21.64482 -16.30782 12.11096 81.42007 -4.56865 -5.67256 13.93228 27.49185 -38.27014 66.96336 -82.08519 -26.49542 3.74184 1.29087 3.4687 1.05661 -50.22685 -8.80496 -1.59345 5.1912 16.52424 -1.74438 1.45323 -24.30832 4.86079 0.26627 -4.2489
0.02065 0.91655 -0.61981 1262.534 0 -3.12553 -7.49301 16.2234 0.78475 -34.76512 2.79744 3.40233 32.21303 -21.56305 -16.0318 12.17049 81.43197 -4.53533 -5.70699 13.95106 27.63209 -37.93495 67.16105 -82.03287 -26.67426 3.70401 3.43183 3.42813 1.47126 -54.08557 -11.6242 -1.85528 5.259 15.41951 -1.76893 1.81551 -24.21633 5.63824 0.04608 -4.66194
0.00388 0.9187 -0.61797 1262.86835 0 -3.32189 -7.23256 16.31745 0.40608 -34.83129 2.81512 3.07237 32.27201 -21.24928 -15.81787 12.19813 81.42931 -4.49369 -5.64541 14.15209 27.99169 -37.76519 67.39374 -81.70172 -26.74915 3.65067 5.21803 3.66203 1.19911 -56.12768 -11.41271 -1.95636 4.02436 14.21597 -1.68159 1.58816 -23.75518 6.09546 -0.0373 -4.71694
-0.01244 0.92094 -0.61654 1263.28172 0 -3.58399 -6.94751 16.51573 -0.01982 -34.8714 2.79776 2.66453 32.34884 -20.85219 -15.62123 12.21427 81.42122 -4.4479 -5.55217 14.40801 28.43645 -37.6455 67.66438 -81.27605 -26.78963 3.59221 6.88479 3.99705 0.70984 -57.44193 -10.13918 -2.02114 2.32363 12.96114 -1.54913 1.16097 -23.12619 6.44314 -0.07132 -4.64445
-0.02892 0.92311 -0.61494 1263.64563 0 -3.81361 -6.68243 16.66682 -0.41682 -34.91555 2.79249 2.29611 32.41335 -20.4963 -15.42102 12.23372 81.41479 -4.40379 -5.47619 14.6314 28.84012 -37.49843 67.92841 -80.90205 -26.84862 3.53757 8.59747 4.28025 0.34099 -59.00099 -9.36497 -2.11187 0.86294 11.72766 -1.43623 0.83563 -22.566 6.84118 -0.12651 -4.62852
-0.04558 0.92542 -0.6133 1264.06611 0 -4.05546 -6.37903 16.81757 -0.84714 -34.99071 2.804 1.90955 32.4974 -20.12492 -15.1965 12.26213 81.41192 -4.35988 -5.38874 14.88313 29.2579 -37.3658 68.15718 -80.49077 -26.89639 3.47625 10.36059 4.59376 -0.10861 -60.93985 -8.53554 -2.174 -0.72954 10.49319 -1.32422 0.46768 -22.01976 7.24114 -0.18823 -4.62138
-0.06175 0.92746 -0.61183 1264.3878 0 -4.28628 -6.15057 16.99342 -1.218 -34.99598 2.77184 1.54304 32.54408 -19.76689 -15.02942 12.26899 81.40041 -4.31488 -5.31743 15.0905 29.66531 -37.21751 68.46512 -80.13514 -26.95901 3.42772 11.98214 4.8647 -0.44662 -61.90136 -7.56702 -2.28128 -2.15068 9.25244 -1.20144 0.13963 -21.4117 7.60976 -0.22418 -4.56457
-0.07668 0.92881 -0.61068 1264.41716 0 -4.47901 -6.12877 17.21542 -1.41967 -34.81287 2.62974 1.24703 32.48604 -19.46202 -15.01349 12.21685 81.36493 -4.26722 -5.29829 15.1588 30.01883 -37.00675 68.977 -79.95293 -27.07087 3.41628 13.26914 5.00983 -0.41214 -60.42654 -6.42505 -2.54021 -3.01729 8.00405 -1.05233 -0.031 -20.671 7.91426 -0.20113 -4.40114
-0.09112 0.92988 -0.60968 1264.34473 0 -4.65661 -6.18444 17.45856 -1.5585 -34.561 2.44455 0.97474 32.38903 -19.17443 -15.05649 12.14367 81.32117 -4.21883 -5.29643 15.18141 30.359 -36.78041 69.56668 -79.83046 -27.19867 3.41786 14.41008 5.1051 -0.26038 -57.97621 -5.18595 -2.84118 -3.68772 6.7533 -0.89571 -0.1549 -19.87778 8.19125 -0.15395 -4.19205
-0.10577 0.93103 -0.60863 1264.31878 0 -4.83574 -6.20898 17.69056 -1.72152 -34.3419 2.27753 0.6943 32.30776 -18.88174 -15.07511 12.08153 81.28214 -4.17128 -5.28664 15.22781 30.70771 -36.56648 70.12298 -79.6831 -27.31928 3.41317 15.59942 5.21165 -0.17246 -55.91593 -4.02106 -3.10957 -4.42543 5.50627 -0.74788 -0.29962 -19.11188 8.48286 -0.1172 -4.00354
-0.12047 0.93239 -0.60753 1264.29359 0 -5.04032 -6.21577 17.93295 -1.9044 -34.11505 2.11485 0.40006 32.23541 -18.57434 -15.08295 12.0129 81.23892 -4.12138 -5.276 15.26425 31.04965 -36.3319 70.67292 -79.52361 -27.43888 3.40974 16.86432 5.36931 -0.0517 -54.05545 -2.69338 -3.43341 -5.27273 4.24452 -0.57574 -0.45279 -18.32154 8.76128 -0.07979 -3.81037
-0.13495 0.93323 -0.60658 1264.24294 0 -5.18669 -6.27781 18.157 -2.03068 -33.88885 1.93386 0.14118 32.13508 -18.30294 -15.12845 11.9528 81.20242 -4.07631 -5.27176 15.30864 31.40066 -36.13576 71.25343 -79.40391 -27.56432 3.40688 17.93416 5.40802 0.03667 -51.55651 -1.6944 -3.65263 -5.83806 3.01558 -0.45307 -0.57491 -17.57649 9.06267 -0.0402 -3.61894
-0.14886 0.93279 -0.606 1264.13585 0 -5.18213 -6.47708 18.32834 -2.01295 -33.67769 1.70853 -0.02556 31.96611 -18.12542 -15.25212 11.92259 81.18767 -4.04446 -5.28015 15.39699 31.78614 -36.05222 71.90375 -79.38805 -27.70603 3.40223 18.54003 5.1243 -0.03919 -47.54329 -1.64185 -3.56855 -5.67991 1.86249 -0.46853 -0.62034 -16.93371 9.42899 0.0125 -3.43356
-0.16259 0.93182 -0.60558 1264.0088 0 -5.11815 -6.72841 18.47969 -1.94072 -33.47065 1.46711 -0.15739 31.77043 -17.98388 -15.41404 11.9015 81.17982 -4.01757 -5.29465 15.49289 32.17991 -36.00759 72.58073 -79.40925 -27.85232 3.39775 18.94842 4.72353 -0.14251 -42.92802 -1.92683 -3.37881 -5.24212 0.74644 -0.53402 -0.63594 -16.34741 9.82061 0.06391 -3.25407
-0.17644 0.93105 -0.60513 1263.8971 0 -5.07685 -6.95407 18.6373 -1.89524 -33.26388 1.23624 -0.3048 31.58744 -17.82754 -15.56543 11.87557 81.16809 -3.98862 -5.30706 15.5776 32.56509 -35.94266 73.24285 -79.40808 -27.99424 3.39334 19.42165 4.37949 -0.20135 -38.57904 -2.0516 -3.24007 -4.92391 -0.37721 -0.57747 -0.66531 -15.75756 10.20496 0.10715 -3.07896
-0.19008 0.93042 -0.60451 1263.75336 0 -5.05277 -7.19224 18.80646 -1.83935 -33.04451 0.99073 -0.4519 31.40065 -17.66649 -15.68864 11.85201 81.15914 -3.95882 -5.31729 15.69236 32.96912 -35.88658 73.9208 -79.43145 -28.14706 3.3888 19.99284 4.01762 -0.38931 -34.20574 -2.19742 -3.08949 -4.62639 -1.54321 -0.61902 -0.69079 -15.06607 10.57159 0.1882 -2.87212
-0.20414 0.92939 -0.60429 1263.67549 0 -4.97958 -7.41404 18.948 -1.79288 -32.85468 0.77175 -0.59258 31.21608 -17.52197 -15.88053 11.82572 81.14621 -3.93198 -5.33312 15.74835 33.33742 -35.82361 74.56919 -79.4128 -28.27719 3.38438 20.31757 3.66728 -0.31887 -29.77891 -2.38555 -2.93879 -4.22744 -2.60813 -0.67484 -0.71971 -14.60831 10.98006 0.18989 -2.7337
-0.21928 0.9274 -0.60504 1263.76292 0 -4.77932 -7.5918 19.00517 -1.78705 -32.73382 0.63653 -0.71587 31.0436 -17.42839 -16.23793 11.79187 81.11997 -3.91215 -5.36447 15.62821 33.59183 -35.71374 75.14463 -79.25975 -28.35094 3.38032 19.98795 3.36429 0.49188 -25.13413 -2.56849 -2.80611 -3.56842 -3.43483 -0.77156 -0.74735 -14.71843 11.50703 -0.02696 -2.78217
-0.23487 0.92504 -0.60618 1263.92189 0 -4.53281 -7.74828 19.0374 -1.79263 -32.64521 0.52778 -0.8353 30.87495 -17.34776 -16.66549 11.75464 81.08965 -3.89517 -5.40087 15.45124 33.81188 -35.59886 75.68563 -79.06457 -28.40029 3.3763 19.42146 3.07965 1.55826 -20.50157 -2.78877 -2.67813 -2.82647 -4.15343 -0.87784 -0.78143 -15.07617 12.07119 -0.32333 -2.9008
-0.25031 0.92285 -0.60719 1264.06264 0 -4.31154 -7.90502 19.08965 -1.79249 -32.54956 0.40252 -0.96232 30.7046 -17.25154 -17.07047 11.71768 81.06164 -3.87682 -5.43392 15.30824 34.05718 -35.49866 76.23275 -78.89447 -28.45585 3.37214 18.97931 2.79543 2.49524 -16.01137 -3.02041 -2.55275 -2.15571 -4.9028 -0.97149 -0.82672 -15.35988 12.61564 -0.58418 -2.98647
-0.26551 0.9206 -0.60804 1264.14208 0 -4.07057 -8.10343 19.10514 -1.79278 -32.42114 0.29463 -1.06452 30.53152 -17.19644 -17.43799 11.68648 81.03192 -3.85877 -5.47174 15.13062 34.26471 -35.34836 76.82334 -78.70064 -28.53204 3.3685 18.46182 2.47003 3.49155 -10.87618 -3.15057 -2.40381 -1.33549 -5.73537 -1.10412 -0.81802 -15.47413 13.18299 -0.84439 -3.0721
-0.28132 0.91843 -0.60931 1264.36676 0 -3.86016 -8.20917 19.19078 -1.79547 -32.36948 0.15824 -1.21663 30.36743 -17.0597 -17.89912 11.6422 81.00473 -3.84094 -5.50062 15.0121 34.53934 -35.29958 77.31204 -78.54577 -28.55957 3.3638 18.04492 2.23642 4.41988 -7.09387 -3.48854 -2.30629 -0.80825 -6.3607 -1.15435 -0.91519 -16.01049 13.69836 -1.12238 -3.18039
-0.29876 0.9164 -0.61162 1264.97288 0 -3.74795 -8.065 19.4822 -1.80313 -32.51397 -0.07329 -1.51888 30.20959 -16.6824 -18.6049 11.56451 80.98517 -3.82106 -5.50477 15.06526 35.03662 -35.54196 77.55236 -78.50822 -28.45681 3.35594 17.98701 2.25096 5.14488 -7.06093 -4.45887 -2.35122 -1.13198 -6.51455 -0.99977 -1.37888 -17.5561 14.16952 -1.45025 -3.28077
-0.31679 0.91451 -0.61435 1265.72312 0 -3.66773 -7.82796 19.84368 -1.81272 -32.73563 -0.33255 -1.86941 30.06387 -16.22469 -19.40066 11.47362 80.96838 -3.80164 -5.49959 15.18038 35.59759 -35.88457 77.68728 -78.51112 -28.30614 3.34702 18.03457 2.35777 5.78417 -8.3881 -5.62275 -2.44795 -1.75088 -6.44964 -0.75784 -1.93676 -19.5345 14.56607 -1.7891 -3.40987
-0.33454 0.91268 -0.61692 1266.40895 0 -3.57181 -7.63254 20.16975 -1.82119 -32.92771 -0.57233 -2.19068 29.92461 -15.81129 -20.15407 11.3872 80.95045 -3.78326 -5.49775 15.27129 36.10989 -36.17496 77.85336 -78.49581 -28.17873 3.33875 18.02032 2.42378 6.43187 -9.08615 -6.65194 -2.52045 -2.22176 -6.43657 -0.53816 -2.39961 -21.37867 14.92635 -2.11014 -3.56282
